<svg width="326" height="325" viewBox="0 0 326 325" fill="none" xmlns="http://www.w3.org/2000/svg">
<path fill-rule="evenodd" clip-rule="evenodd" d="M253.384 52.4062C271.71 52.4062 289.285 59.6639 302.244 72.5826C315.202 85.5013 322.482 103.023 322.482 121.293C322.482 139.563 315.202 157.084 302.244 170.003C289.285 182.922 271.71 190.179 253.384 190.179L321.925 258.51C330.618 267.191 324.465 282.032 312.145 282.032H115.187C84.6409 282.032 55.3462 269.935 33.7471 248.402C12.1479 226.869 0.0136719 197.665 0.0136719 167.212C0.0136719 136.76 12.1479 107.556 33.7471 86.0226C55.3462 64.4898 84.6409 52.3927 115.187 52.3927H253.397L253.384 52.4062ZM115.173 98.3125C96.8435 98.3125 79.2646 105.572 66.3036 118.493C53.3426 131.414 46.0612 148.939 46.0612 167.212C46.0612 185.486 53.3426 203.011 66.3036 215.932C79.2646 228.853 96.8435 236.113 115.173 236.113C133.501 236.113 151.078 228.854 164.038 215.934C176.998 203.014 184.278 185.491 184.278 167.219C184.278 148.948 176.998 131.424 164.038 118.504C151.078 105.584 133.501 98.3125 115.173 98.3125Z" fill="white"/>
</svg>
